<svg width="80" height="81" viewBox="0 0 80 81" fill="none" xmlns="http://www.w3.org/2000/svg">
<g filter="url(#filter0_i_95_30289)">
<circle cx="39.0297" cy="53.2614" r="23.504" fill="url(#paint0_linear_95_30289)" fill-opacity="0.4"/>
</g>
<g filter="url(#filter1_b_95_30289)">
<circle cx="39.0296" cy="41.4016" r="39.0296" fill="white" fill-opacity="0.3"/>
<circle cx="39.0296" cy="41.4016" r="38.8853" stroke="#5FE07C" stroke-opacity="0.2" stroke-width="0.288674"/>
</g>
<g filter="url(#filter2_b_95_30289)">
<circle cx="39.0296" cy="41.4016" r="32.5606" fill="white" fill-opacity="0.3"/>
<circle cx="39.0296" cy="41.4016" r="32.4163" stroke="#5FE07C" stroke-opacity="0.2" stroke-width="0.288674"/>
</g>
<g filter="url(#filter3_i_95_30289)">
<circle cx="68.0194" cy="14.4703" r="2.6451" fill="url(#paint1_linear_95_30289)"/>
</g>
<g filter="url(#filter4_i_95_30289)">
<circle cx="76.2659" cy="56.0139" r="3.73426" fill="url(#paint2_linear_95_30289)"/>
</g>
<g filter="url(#filter5_i_95_30289)">
<circle cx="9.36027" cy="2.8007" r="2.8007" fill="url(#paint3_linear_95_30289)"/>
</g>
<g filter="url(#filter6_i_95_30289)">
<circle cx="10.605" cy="29.2517" r="1.55594" fill="url(#paint4_linear_95_30289)"/>
</g>
<g filter="url(#filter7_i_95_30289)">
<circle cx="3.13648" cy="52.2797" r="2.48951" fill="url(#paint5_linear_95_30289)"/>
</g>
<g filter="url(#filter8_i_95_30289)">
<path fill-rule="evenodd" clip-rule="evenodd" d="M61.1406 14.7635C61.249 14.8719 61.3203 15.0117 61.3444 15.163C61.6433 18.6967 61.3385 22.2555 60.4432 25.687L50.3116 15.4464C53.7125 14.5604 57.2395 14.2605 60.7412 14.5597C60.8925 14.5838 61.0323 14.6552 61.1406 14.7635ZM35.3032 25.251L25.4914 40.9353C25.4037 41.0748 25.366 41.24 25.3845 41.4038C25.403 41.5675 25.4766 41.7201 25.5932 41.8366L34.0677 50.3111C34.135 50.3797 34.2152 50.4344 34.3038 50.4718C34.3924 50.5092 34.4875 50.5287 34.5837 50.5291C34.7209 50.5299 34.8551 50.4894 34.9689 50.4128L50.7041 40.5574C55.1398 37.2362 58.4011 32.5873 60.0144 27.286L48.7127 15.8898C43.3586 17.4996 38.6598 20.7798 35.3032 25.251Z" fill="url(#paint6_linear_95_30289)"/>
</g>
<g filter="url(#filter9_bdiii_95_30289)">
<path d="M-nan -nanL26.9161 47.8689L23.2821 51.5029C23.214 51.5705 23.1599 51.6509 23.123 51.7395C23.0861 51.828 23.0671 51.923 23.0671 52.019C23.0671 52.1149 23.0861 52.2099 23.123 52.2985C23.1599 52.387 23.214 52.4674 23.2821 52.535C23.35 52.6024 23.4306 52.6557 23.5191 52.6918C23.6077 52.728 23.7025 52.7463 23.7982 52.7458C23.9888 52.745 24.1715 52.6693 24.3069 52.535L27.9409 48.901C28.009 48.8334 28.0631 48.753 28.1 48.6645C28.1369 48.5759 28.1559 48.4809 28.1559 48.385C28.1559 48.289 28.1369 48.194 28.1 48.1055C28.0631 48.0169 28.009 47.9365 27.9409 47.8689C27.8047 47.7336 27.6205 47.6576 27.4285 47.6576C27.2365 47.6576 27.0523 47.7336 26.9161 47.8689L-nan -nanZ" fill="url(#paint7_linear_95_30289)" fill-opacity="0.21"/>
<path d="M-nan -nanL26.9161 47.8689L23.2821 51.5029C23.214 51.5705 23.1599 51.6509 23.123 51.7395C23.0861 51.828 23.0671 51.923 23.0671 52.019C23.0671 52.1149 23.0861 52.2099 23.123 52.2985C23.1599 52.387 23.214 52.4674 23.2821 52.535C23.35 52.6024 23.4306 52.6557 23.5191 52.6918C23.6077 52.728 23.7025 52.7463 23.7982 52.7458C23.9888 52.745 24.1715 52.6693 24.3069 52.535L27.9409 48.901C28.009 48.8334 28.0631 48.753 28.1 48.6645C28.1369 48.5759 28.1559 48.4809 28.1559 48.385C28.1559 48.289 28.1369 48.194 28.1 48.1055C28.0631 48.0169 28.009 47.9365 27.9409 47.8689C27.8047 47.7336 27.6205 47.6576 27.4285 47.6576C27.2365 47.6576 27.0523 47.7336 26.9161 47.8689L-nan -nanZ" fill="#D7FFC2" fill-opacity="0.1"/>
</g>
<g filter="url(#filter10_bdii_95_30289)">
<path fill-rule="evenodd" clip-rule="evenodd" d="M26.6595 41.2722C26.6651 41.2666 26.6659 41.2578 26.6615 41.2512C26.6574 41.2451 26.6579 41.2369 26.6628 41.2313C26.7265 41.1595 26.8037 41.1011 26.8901 41.0593C26.9802 41.0156 27.0785 40.9911 27.1786 40.9873C27.2786 40.9834 27.3785 41.0003 27.4717 41.0368C27.565 41.0733 27.6497 41.1288 27.7205 41.1996C27.7914 41.2704 27.8468 41.3551 27.8833 41.4484C27.9199 41.5417 27.9367 41.6415 27.9329 41.7416C27.929 41.8417 27.9045 41.9399 27.8609 42.0301C27.8172 42.1202 27.7554 42.2004 27.6794 42.2656L26.0586 43.8863C25.9298 44.0296 25.7494 44.1158 25.5571 44.1262C25.4134 44.1256 25.273 44.0824 25.1538 44.002C25.0347 43.9216 24.942 43.8077 24.8875 43.6747C24.8331 43.5417 24.8193 43.3955 24.8479 43.2546C24.8765 43.1138 24.9463 42.9846 25.0483 42.8833L26.6595 41.2722ZM18.8778 55.7695L23.8782 50.7473C24.015 50.6075 24.2018 50.5279 24.3974 50.5258C24.593 50.5238 24.7814 50.5995 24.9211 50.7364C25.0609 50.8732 25.1405 51.06 25.1426 51.2556C25.1446 51.4512 25.0689 51.6396 24.932 51.7793L19.9026 56.8015C19.7657 56.9374 19.5805 57.0134 19.3876 57.0127C19.1948 57.012 19.0101 56.9348 18.8742 56.7979C18.7383 56.661 18.6623 56.4758 18.663 56.2829C18.6637 56.0901 18.7409 55.9054 18.8778 55.7695ZM29.614 45.4979C29.6184 45.5045 29.6175 45.5133 29.6119 45.5189L28.0008 47.13C27.8987 47.2312 27.829 47.3604 27.8004 47.5013C27.7717 47.6422 27.7855 47.7884 27.84 47.9214C27.8944 48.0544 27.9871 48.1683 28.1063 48.2487C28.2255 48.329 28.3658 48.3722 28.5095 48.3728C28.7019 48.3625 28.8823 48.2762 29.011 48.133L30.6318 46.5122C30.7079 46.4471 30.7697 46.3669 30.8133 46.2767C30.8569 46.1866 30.8814 46.0883 30.8853 45.9882C30.8892 45.8881 30.8723 45.7883 30.8358 45.6951C30.7992 45.6018 30.7438 45.5171 30.673 45.4463C30.6021 45.3754 30.5174 45.32 30.4242 45.2835C30.3309 45.2469 30.2311 45.2301 30.131 45.2339C30.0309 45.2378 29.9327 45.2623 29.8425 45.3059C29.7561 45.3477 29.6789 45.4062 29.6153 45.478C29.6103 45.4835 29.6099 45.4917 29.614 45.4979ZM33.4625 48.0749C33.4679 48.0694 33.4764 48.0685 33.4828 48.0728C33.4891 48.077 33.4974 48.0761 33.5029 48.0709C33.6388 47.9407 33.82 47.8681 34.0085 47.8688C34.2014 47.8695 34.3861 47.9467 34.522 48.0836C34.6579 48.2205 34.7339 48.4057 34.7332 48.5986C34.7325 48.7914 34.6552 48.9761 34.5184 49.112L32.8976 50.7328C32.7622 50.8671 32.5795 50.9428 32.3888 50.9436C32.2932 50.9441 32.1984 50.9258 32.1098 50.8896C32.0213 50.8534 31.9407 50.8001 31.8728 50.7328C31.8047 50.6652 31.7506 50.5848 31.7137 50.4963C31.6768 50.4077 31.6578 50.3127 31.6578 50.2168C31.6578 50.1208 31.6768 50.0258 31.7137 49.9373C31.7506 49.8487 31.8047 49.7683 31.8728 49.7007L33.4625 48.0749ZM28.7113 52.8332L25.7242 55.8131C25.656 55.8807 25.602 55.961 25.5651 56.0496C25.5282 56.1382 25.5092 56.2332 25.5092 56.3291C25.5092 56.4251 25.5282 56.5201 25.5651 56.6086C25.602 56.6972 25.656 56.7776 25.7242 56.8452C25.7921 56.9125 25.8726 56.9658 25.9612 57.002C26.0497 57.0381 26.1445 57.0565 26.2402 57.0559C26.3358 57.0565 26.4307 57.0381 26.5192 57.002C26.6078 56.9658 26.6883 56.9125 26.7562 56.8452L29.7361 53.858C29.8552 53.719 29.9174 53.5401 29.9103 53.3572C29.9033 53.1743 29.8274 53.0008 29.698 52.8713C29.5686 52.7419 29.395 52.6661 29.2121 52.659C29.0292 52.6519 28.8504 52.7141 28.7113 52.8332ZM17.9364 49.6689L20.9236 46.6891C21.0626 46.57 21.2415 46.5078 21.4244 46.5148C21.6073 46.5219 21.7808 46.5977 21.9102 46.7272C22.0397 46.8566 22.1155 47.0301 22.1226 47.213C22.1296 47.396 22.0674 47.5748 21.9484 47.7138L18.9685 50.701C18.9006 50.7684 18.82 50.8216 18.7315 50.8578C18.6429 50.894 18.5481 50.9123 18.4524 50.9118C18.3568 50.9123 18.262 50.894 18.1734 50.8578C18.0849 50.8216 18.0043 50.7684 17.9364 50.701C17.8683 50.6334 17.8142 50.553 17.7773 50.4645C17.7404 50.3759 17.7214 50.2809 17.7214 50.185C17.7214 50.089 17.7404 49.994 17.7773 49.9055C17.8142 49.8169 17.8683 49.7365 17.9364 49.6689Z" fill="url(#paint8_linear_95_30289)" fill-opacity="0.1"/>
</g>
<g filter="url(#filter11_i_95_30289)">
<path fill-rule="evenodd" clip-rule="evenodd" d="M61.1406 14.7635C61.249 14.8718 61.3203 15.0116 61.3444 15.1629C61.6433 18.6967 61.3385 22.2555 60.4432 25.687L50.3116 15.4464C53.7125 14.5604 57.2395 14.2605 60.7412 14.5597C60.8925 14.5838 61.0323 14.6552 61.1406 14.7635ZM35.3032 25.251L25.4914 40.9353C25.4037 41.0748 25.366 41.24 25.3845 41.4038C25.403 41.5675 25.4766 41.7201 25.5932 41.8365L34.0677 50.311C34.135 50.3797 34.2152 50.4343 34.3038 50.4718C34.3924 50.5092 34.4875 50.5287 34.5837 50.5291C34.7209 50.5299 34.8551 50.4893 34.9689 50.4128L50.7041 40.5574C55.1398 37.2362 58.4011 32.5873 60.0144 27.286L48.7127 15.8898C43.3586 17.4996 38.6598 20.7798 35.3032 25.251Z" fill="url(#paint9_linear_95_30289)"/>
</g>
<g filter="url(#filter12_biii_95_30289)">
<path d="M38.1635 47.5917C37.7159 47.961 37.5394 48.5611 37.6688 49.1267C38.4505 52.5464 37.9766 56.1459 36.314 59.259C36.2265 59.4009 36.1906 59.5686 36.2121 59.734C36.2336 59.8993 36.3113 60.0522 36.4322 60.1671C36.5097 60.2388 36.6018 60.2928 36.7022 60.3252C36.8027 60.3577 36.909 60.368 37.0137 60.3552C37.1345 60.3401 37.2496 60.2949 37.3484 60.2237C41.5543 57.2073 50.2209 49.8379 49.3252 40.9113C49.2208 39.8707 48.0042 39.4745 47.1974 40.14L38.1635 47.5917Z" fill="url(#paint10_linear_95_30289)" fill-opacity="0.09"/>
<path d="M38.1635 47.5917C37.7159 47.961 37.5394 48.5611 37.6688 49.1267C38.4505 52.5464 37.9766 56.1459 36.314 59.259C36.2265 59.4009 36.1906 59.5686 36.2121 59.734C36.2336 59.8993 36.3113 60.0522 36.4322 60.1671C36.5097 60.2388 36.6018 60.2928 36.7022 60.3252C36.8027 60.3577 36.909 60.368 37.0137 60.3552C37.1345 60.3401 37.2496 60.2949 37.3484 60.2237C41.5543 57.2073 50.2209 49.8379 49.3252 40.9113C49.2208 39.8707 48.0042 39.4745 47.1974 40.14L38.1635 47.5917Z" fill="#506943" fill-opacity="0.05"/>
</g>
<g filter="url(#filter13_biii_95_30289)">
<path d="M28.6363 38.4955C28.2568 38.9345 27.6528 39.0971 27.0903 38.9548C23.6895 38.0946 20.08 38.4855 16.9296 40.0761C16.7856 40.1602 16.6171 40.1923 16.4523 40.167C16.2875 40.1417 16.1365 40.0605 16.0244 39.937C15.9545 39.8579 15.9027 39.7645 15.8725 39.6634C15.8423 39.5623 15.8346 39.4557 15.8497 39.3513C15.8676 39.2309 15.9155 39.1168 15.9889 39.0197C19.1013 34.8844 26.6681 26.3896 35.5718 27.4904C36.6097 27.6188 36.9777 28.8441 36.2939 29.6354L28.6363 38.4955Z" fill="url(#paint11_linear_95_30289)" fill-opacity="0.09"/>
<path d="M28.6363 38.4955C28.2568 38.9345 27.6528 39.0971 27.0903 38.9548C23.6895 38.0946 20.08 38.4855 16.9296 40.0761C16.7856 40.1602 16.6171 40.1923 16.4523 40.167C16.2875 40.1417 16.1365 40.0605 16.0244 39.937C15.9545 39.8579 15.9027 39.7645 15.8725 39.6634C15.8423 39.5623 15.8346 39.4557 15.8497 39.3513C15.8676 39.2309 15.9155 39.1168 15.9889 39.0197C19.1013 34.8844 26.6681 26.3896 35.5718 27.4904C36.6097 27.6188 36.9777 28.8441 36.2939 29.6354L28.6363 38.4955Z" fill="#506943" fill-opacity="0.05"/>
</g>
<g filter="url(#filter14_bdiii_95_30289)">
<path d="M-nan -nanL26.9161 47.869L23.2821 51.503C23.214 51.5705 23.1599 51.6509 23.123 51.7395C23.0861 51.8281 23.0671 51.9231 23.0671 52.019C23.0671 52.1149 23.0861 52.2099 23.123 52.2985C23.1599 52.3871 23.214 52.4675 23.2821 52.535C23.35 52.6024 23.4306 52.6557 23.5191 52.6919C23.6077 52.728 23.7025 52.7464 23.7982 52.7458C23.9888 52.745 24.1715 52.6693 24.3069 52.535L27.9409 48.901C28.009 48.8335 28.0631 48.7531 28.1 48.6645C28.1369 48.5759 28.1559 48.4809 28.1559 48.385C28.1559 48.2891 28.1369 48.1941 28.1 48.1055C28.0631 48.0169 28.009 47.9365 27.9409 47.869C27.8047 47.7336 27.6205 47.6576 27.4285 47.6576C27.2365 47.6576 27.0523 47.7336 26.9161 47.869L-nan -nanZ" fill="url(#paint12_linear_95_30289)" fill-opacity="0.21"/>
<path d="M-nan -nanL26.9161 47.869L23.2821 51.503C23.214 51.5705 23.1599 51.6509 23.123 51.7395C23.0861 51.8281 23.0671 51.9231 23.0671 52.019C23.0671 52.1149 23.0861 52.2099 23.123 52.2985C23.1599 52.3871 23.214 52.4675 23.2821 52.535C23.35 52.6024 23.4306 52.6557 23.5191 52.6919C23.6077 52.728 23.7025 52.7464 23.7982 52.7458C23.9888 52.745 24.1715 52.6693 24.3069 52.535L27.9409 48.901C28.009 48.8335 28.0631 48.7531 28.1 48.6645C28.1369 48.5759 28.1559 48.4809 28.1559 48.385C28.1559 48.2891 28.1369 48.1941 28.1 48.1055C28.0631 48.0169 28.009 47.9365 27.9409 47.869C27.8047 47.7336 27.6205 47.6576 27.4285 47.6576C27.2365 47.6576 27.0523 47.7336 26.9161 47.869L-nan -nanZ" fill="#D7FFC2" fill-opacity="0.1"/>
</g>
<g filter="url(#filter15_bdii_95_30289)">
<path fill-rule="evenodd" clip-rule="evenodd" d="M26.6595 41.2722C26.6651 41.2666 26.6659 41.2578 26.6615 41.2513C26.6574 41.2451 26.6579 41.2369 26.6628 41.2313C26.7265 41.1596 26.8037 41.1011 26.8901 41.0593C26.9802 41.0157 27.0785 40.9911 27.1786 40.9873C27.2786 40.9834 27.3785 41.0003 27.4717 41.0368C27.565 41.0734 27.6497 41.1288 27.7205 41.1996C27.7914 41.2704 27.8468 41.3552 27.8833 41.4484C27.9199 41.5417 27.9367 41.6415 27.9329 41.7416C27.929 41.8417 27.9045 41.9399 27.8609 42.0301C27.8172 42.1202 27.7554 42.2004 27.6794 42.2656L26.0586 43.8863C25.9298 44.0296 25.7494 44.1159 25.5571 44.1262C25.4134 44.1256 25.273 44.0824 25.1538 44.002C25.0347 43.9217 24.942 43.8078 24.8875 43.6747C24.8331 43.5417 24.8193 43.3955 24.8479 43.2547C24.8765 43.1138 24.9463 42.9846 25.0483 42.8834L26.6595 41.2722ZM18.8778 55.7695L23.8782 50.7473C24.015 50.6076 24.2018 50.5279 24.3974 50.5259C24.593 50.5238 24.7814 50.5995 24.9211 50.7364C25.0609 50.8733 25.1405 51.06 25.1426 51.2556C25.1446 51.4512 25.0689 51.6396 24.932 51.7794L19.9026 56.8015C19.7657 56.9374 19.5805 57.0134 19.3876 57.0127C19.1948 57.012 19.0101 56.9348 18.8742 56.7979C18.7383 56.6611 18.6623 56.4758 18.663 56.283C18.6637 56.0901 18.7409 55.9054 18.8778 55.7695ZM29.614 45.4979C29.6184 45.5045 29.6175 45.5133 29.6119 45.5189L28.0008 47.13C27.8987 47.2312 27.829 47.3605 27.8004 47.5013C27.7717 47.6422 27.7855 47.7884 27.84 47.9214C27.8944 48.0544 27.9871 48.1683 28.1063 48.2487C28.2255 48.329 28.3658 48.3722 28.5095 48.3729C28.7019 48.3625 28.8823 48.2762 29.011 48.133L30.6318 46.5122C30.7079 46.4471 30.7697 46.3669 30.8133 46.2767C30.8569 46.1866 30.8814 46.0884 30.8853 45.9883C30.8892 45.8882 30.8723 45.7883 30.8358 45.6951C30.7992 45.6018 30.7438 45.5171 30.673 45.4463C30.6021 45.3754 30.5174 45.32 30.4242 45.2835C30.3309 45.2469 30.2311 45.2301 30.131 45.2339C30.0309 45.2378 29.9327 45.2623 29.8425 45.306C29.7561 45.3478 29.6789 45.4062 29.6153 45.478C29.6103 45.4835 29.6099 45.4917 29.614 45.4979ZM33.4625 48.0749C33.4679 48.0694 33.4764 48.0685 33.4828 48.0728C33.4891 48.077 33.4974 48.0761 33.5029 48.0709C33.6388 47.9407 33.82 47.8681 34.0085 47.8688C34.2014 47.8695 34.3861 47.9468 34.522 48.0836C34.6579 48.2205 34.7339 48.4057 34.7332 48.5986C34.7325 48.7914 34.6552 48.9761 34.5184 49.112L32.8976 50.7328C32.7622 50.8671 32.5795 50.9428 32.3888 50.9436C32.2932 50.9441 32.1984 50.9258 32.1098 50.8896C32.0213 50.8535 31.9407 50.8002 31.8728 50.7328C31.8047 50.6652 31.7506 50.5849 31.7137 50.4963C31.6768 50.4077 31.6578 50.3127 31.6578 50.2168C31.6578 50.1208 31.6768 50.0258 31.7137 49.9373C31.7506 49.8487 31.8047 49.7683 31.8728 49.7007L33.4625 48.0749ZM28.7113 52.8332L25.7242 55.8131C25.656 55.8807 25.602 55.9611 25.5651 56.0496C25.5282 56.1382 25.5092 56.2332 25.5092 56.3291C25.5092 56.4251 25.5282 56.5201 25.5651 56.6086C25.602 56.6972 25.656 56.7776 25.7242 56.8452C25.7921 56.9125 25.8726 56.9658 25.9612 57.002C26.0497 57.0382 26.1445 57.0565 26.2402 57.0559C26.3358 57.0565 26.4307 57.0382 26.5192 57.002C26.6078 56.9658 26.6883 56.9125 26.7562 56.8452L29.7361 53.858C29.8552 53.719 29.9174 53.5401 29.9103 53.3572C29.9033 53.1743 29.8274 53.0008 29.698 52.8713C29.5686 52.7419 29.395 52.6661 29.2121 52.659C29.0292 52.6519 28.8504 52.7142 28.7113 52.8332ZM17.9364 49.669L20.9236 46.6891C21.0626 46.57 21.2415 46.5078 21.4244 46.5149C21.6073 46.5219 21.7808 46.5977 21.9102 46.7272C22.0397 46.8566 22.1155 47.0301 22.1226 47.2131C22.1296 47.396 22.0674 47.5748 21.9484 47.7139L18.9685 50.701C18.9006 50.7684 18.82 50.8217 18.7315 50.8578C18.6429 50.894 18.5481 50.9123 18.4524 50.9118C18.3568 50.9123 18.262 50.894 18.1734 50.8578C18.0849 50.8217 18.0043 50.7684 17.9364 50.701C17.8683 50.6334 17.8142 50.5531 17.7773 50.4645C17.7404 50.3759 17.7214 50.2809 17.7214 50.185C17.7214 50.089 17.7404 49.994 17.7773 49.9055C17.8142 49.8169 17.8683 49.7365 17.9364 49.669Z" fill="url(#paint13_linear_95_30289)" fill-opacity="0.1"/>
</g>
<g filter="url(#filter16_bdii_95_30289)">
<circle cx="47.7316" cy="27.4397" r="5.48966" fill="url(#paint14_linear_95_30289)" fill-opacity="0.21"/>
<circle cx="47.7316" cy="27.4397" r="5.48966" fill="#D8FFC5" fill-opacity="0.26"/>
</g>
<defs>
<filter id="filter0_i_95_30289" x="15.5256" y="28.8914" width="49.6061" height="47.8741" filterUnits="userSpaceOnUse" color-interpolation-filters="sRGB">
<feFlood flood-opacity="0" result="BackgroundImageFix"/>
<feBlend mode="normal" in="SourceGraphic" in2="BackgroundImageFix" result="shape"/>
<feColorMatrix in="SourceAlpha" type="matrix" values="0 0 0 0 0 0 0 0 0 0 0 0 0 0 0 0 0 0 127 0" result="hardAlpha"/>
<feOffset dx="2.59807" dy="-0.866022"/>
<feGaussianBlur stdDeviation="2.88674"/>
<feComposite in2="hardAlpha" operator="arithmetic" k2="-1" k3="1"/>
<feColorMatrix type="matrix" values="0 0 0 0 0 0 0 0 0 0 0 0 0 0 0 0 0 0 0.17 0"/>
<feBlend mode="normal" in2="shape" result="effect1_innerShadow_95_30289"/>
</filter>
<filter id="filter1_b_95_30289" x="-15.5884" y="-13.2164" width="109.236" height="109.236" filterUnits="userSpaceOnUse" color-interpolation-filters="sRGB">
<feFlood flood-opacity="0" result="BackgroundImageFix"/>
<feGaussianBlur in="BackgroundImage" stdDeviation="7.7942"/>
<feComposite in2="SourceAlpha" operator="in" result="effect1_backgroundBlur_95_30289"/>
<feBlend mode="normal" in="SourceGraphic" in2="effect1_backgroundBlur_95_30289" result="shape"/>
</filter>
<filter id="filter2_b_95_30289" x="-9.11941" y="-6.74741" width="96.2981" height="96.2981" filterUnits="userSpaceOnUse" color-interpolation-filters="sRGB">
<feFlood flood-opacity="0" result="BackgroundImageFix"/>
<feGaussianBlur in="BackgroundImage" stdDeviation="7.7942"/>
<feComposite in2="SourceAlpha" operator="in" result="effect1_backgroundBlur_95_30289"/>
<feBlend mode="normal" in="SourceGraphic" in2="effect1_backgroundBlur_95_30289" result="shape"/>
</filter>
<filter id="filter3_i_95_30289" x="65.3743" y="10.9592" width="7.88823" height="6.15623" filterUnits="userSpaceOnUse" color-interpolation-filters="sRGB">
<feFlood flood-opacity="0" result="BackgroundImageFix"/>
<feBlend mode="normal" in="SourceGraphic" in2="BackgroundImageFix" result="shape"/>
<feColorMatrix in="SourceAlpha" type="matrix" values="0 0 0 0 0 0 0 0 0 0 0 0 0 0 0 0 0 0 127 0" result="hardAlpha"/>
<feOffset dx="2.59807" dy="-0.866022"/>
<feGaussianBlur stdDeviation="2.88674"/>
<feComposite in2="hardAlpha" operator="arithmetic" k2="-1" k3="1"/>
<feColorMatrix type="matrix" values="0 0 0 0 0 0 0 0 0 0 0 0 0 0 0 0 0 0 0.17 0"/>
<feBlend mode="normal" in2="shape" result="effect1_innerShadow_95_30289"/>
</filter>
<filter id="filter4_i_95_30289" x="72.5316" y="51.4136" width="10.0666" height="8.33454" filterUnits="userSpaceOnUse" color-interpolation-filters="sRGB">
<feFlood flood-opacity="0" result="BackgroundImageFix"/>
<feBlend mode="normal" in="SourceGraphic" in2="BackgroundImageFix" result="shape"/>
<feColorMatrix in="SourceAlpha" type="matrix" values="0 0 0 0 0 0 0 0 0 0 0 0 0 0 0 0 0 0 127 0" result="hardAlpha"/>
<feOffset dx="2.59807" dy="-0.866022"/>
<feGaussianBlur stdDeviation="2.88674"/>
<feComposite in2="hardAlpha" operator="arithmetic" k2="-1" k3="1"/>
<feColorMatrix type="matrix" values="0 0 0 0 0 0 0 0 0 0 0 0 0 0 0 0 0 0 0.17 0"/>
<feBlend mode="normal" in2="shape" result="effect1_innerShadow_95_30289"/>
</filter>
<filter id="filter5_i_95_30289" x="6.55957" y="-0.866022" width="8.19951" height="6.46742" filterUnits="userSpaceOnUse" color-interpolation-filters="sRGB">
<feFlood flood-opacity="0" result="BackgroundImageFix"/>
<feBlend mode="normal" in="SourceGraphic" in2="BackgroundImageFix" result="shape"/>
<feColorMatrix in="SourceAlpha" type="matrix" values="0 0 0 0 0 0 0 0 0 0 0 0 0 0 0 0 0 0 127 0" result="hardAlpha"/>
<feOffset dx="2.59807" dy="-0.866022"/>
<feGaussianBlur stdDeviation="2.88674"/>
<feComposite in2="hardAlpha" operator="arithmetic" k2="-1" k3="1"/>
<feColorMatrix type="matrix" values="0 0 0 0 0 0 0 0 0 0 0 0 0 0 0 0 0 0 0.17 0"/>
<feBlend mode="normal" in2="shape" result="effect1_innerShadow_95_30289"/>
</filter>
<filter id="filter6_i_95_30289" x="9.04907" y="26.8297" width="5.71001" height="3.97792" filterUnits="userSpaceOnUse" color-interpolation-filters="sRGB">
<feFlood flood-opacity="0" result="BackgroundImageFix"/>
<feBlend mode="normal" in="SourceGraphic" in2="BackgroundImageFix" result="shape"/>
<feColorMatrix in="SourceAlpha" type="matrix" values="0 0 0 0 0 0 0 0 0 0 0 0 0 0 0 0 0 0 127 0" result="hardAlpha"/>
<feOffset dx="2.59807" dy="-0.866022"/>
<feGaussianBlur stdDeviation="2.88674"/>
<feComposite in2="hardAlpha" operator="arithmetic" k2="-1" k3="1"/>
<feColorMatrix type="matrix" values="0 0 0 0 0 0 0 0 0 0 0 0 0 0 0 0 0 0 0.17 0"/>
<feBlend mode="normal" in2="shape" result="effect1_innerShadow_95_30289"/>
</filter>
<filter id="filter7_i_95_30289" x="0.646973" y="48.9241" width="7.57707" height="5.84504" filterUnits="userSpaceOnUse" color-interpolation-filters="sRGB">
<feFlood flood-opacity="0" result="BackgroundImageFix"/>
<feBlend mode="normal" in="SourceGraphic" in2="BackgroundImageFix" result="shape"/>
<feColorMatrix in="SourceAlpha" type="matrix" values="0 0 0 0 0 0 0 0 0 0 0 0 0 0 0 0 0 0 127 0" result="hardAlpha"/>
<feOffset dx="2.59807" dy="-0.866022"/>
<feGaussianBlur stdDeviation="2.88674"/>
<feComposite in2="hardAlpha" operator="arithmetic" k2="-1" k3="1"/>
<feColorMatrix type="matrix" values="0 0 0 0 0 0 0 0 0 0 0 0 0 0 0 0 0 0 0.17 0"/>
<feBlend mode="normal" in2="shape" result="effect1_innerShadow_95_30289"/>
</filter>
<filter id="filter8_i_95_30289" x="25.3799" y="13.5814" width="38.6738" height="36.9477" filterUnits="userSpaceOnUse" color-interpolation-filters="sRGB">
<feFlood flood-opacity="0" result="BackgroundImageFix"/>
<feBlend mode="normal" in="SourceGraphic" in2="BackgroundImageFix" result="shape"/>
<feColorMatrix in="SourceAlpha" type="matrix" values="0 0 0 0 0 0 0 0 0 0 0 0 0 0 0 0 0 0 127 0" result="hardAlpha"/>
<feOffset dx="2.59807" dy="-0.866022"/>
<feGaussianBlur stdDeviation="2.88674"/>
<feComposite in2="hardAlpha" operator="arithmetic" k2="-1" k3="1"/>
<feColorMatrix type="matrix" values="0 0 0 0 0 0 0 0 0 0 0 0 0 0 0 0 0 0 0.17 0"/>
<feBlend mode="normal" in2="shape" result="effect1_innerShadow_95_30289"/>
</filter>
<filter id="filter9_bdiii_95_30289" x="17.2937" y="41.8841" width="19.2338" height="18.0785" filterUnits="userSpaceOnUse" color-interpolation-filters="sRGB">
<feFlood flood-opacity="0" result="BackgroundImageFix"/>
<feGaussianBlur in="BackgroundImage" stdDeviation="2.88674"/>
<feComposite in2="SourceAlpha" operator="in" result="effect1_backgroundBlur_95_30289"/>
<feColorMatrix in="SourceAlpha" type="matrix" values="0 0 0 0 0 0 0 0 0 0 0 0 0 0 0 0 0 0 127 0" result="hardAlpha"/>
<feOffset dx="2.59807" dy="1.44337"/>
<feGaussianBlur stdDeviation="2.88674"/>
<feColorMatrix type="matrix" values="0 0 0 0 0.0690278 0 0 0 0 0.295833 0 0 0 0 0.11166 0 0 0 0.08 0"/>
<feBlend mode="normal" in2="effect1_backgroundBlur_95_30289" result="effect2_dropShadow_95_30289"/>
<feBlend mode="normal" in="SourceGraphic" in2="effect2_dropShadow_95_30289" result="shape"/>
<feColorMatrix in="SourceAlpha" type="matrix" values="0 0 0 0 0 0 0 0 0 0 0 0 0 0 0 0 0 0 127 0" result="hardAlpha"/>
<feOffset dx="-2.88674" dy="2.88674"/>
<feGaussianBlur stdDeviation="1.44337"/>
<feComposite in2="hardAlpha" operator="arithmetic" k2="-1" k3="1"/>
<feColorMatrix type="matrix" values="0 0 0 0 1 0 0 0 0 1 0 0 0 0 1 0 0 0 0.15 0"/>
<feBlend mode="normal" in2="shape" result="effect3_innerShadow_95_30289"/>
<feColorMatrix in="SourceAlpha" type="matrix" values="0 0 0 0 0 0 0 0 0 0 0 0 0 0 0 0 0 0 127 0" result="hardAlpha"/>
<feOffset dy="-2.88674"/>
<feGaussianBlur stdDeviation="1.44337"/>
<feComposite in2="hardAlpha" operator="arithmetic" k2="-1" k3="1"/>
<feColorMatrix type="matrix" values="0 0 0 0 0.156863 0 0 0 0 0.67451 0 0 0 0 0.25098 0 0 0 0.3 0"/>
<feBlend mode="normal" in2="effect3_innerShadow_95_30289" result="effect4_innerShadow_95_30289"/>
<feColorMatrix in="SourceAlpha" type="matrix" values="0 0 0 0 0 0 0 0 0 0 0 0 0 0 0 0 0 0 127 0" result="hardAlpha"/>
<feOffset dx="-0.866022" dy="1.73204"/>
<feGaussianBlur stdDeviation="2.16506"/>
<feComposite in2="hardAlpha" operator="arithmetic" k2="-1" k3="1"/>
<feColorMatrix type="matrix" values="0 0 0 0 0.0770313 0 0 0 0 0.6375 0 0 0 0 0.178935 0 0 0 0.09 0"/>
<feBlend mode="normal" in2="effect4_innerShadow_95_30289" result="effect5_innerShadow_95_30289"/>
</filter>
<filter id="filter10_bdii_95_30289" x="11.948" y="35.2132" width="31.1568" height="29.0595" filterUnits="userSpaceOnUse" color-interpolation-filters="sRGB">
<feFlood flood-opacity="0" result="BackgroundImageFix"/>
<feGaussianBlur in="BackgroundImage" stdDeviation="2.88674"/>
<feComposite in2="SourceAlpha" operator="in" result="effect1_backgroundBlur_95_30289"/>
<feColorMatrix in="SourceAlpha" type="matrix" values="0 0 0 0 0 0 0 0 0 0 0 0 0 0 0 0 0 0 127 0" result="hardAlpha"/>
<feOffset dx="2.59807" dy="1.44337"/>
<feGaussianBlur stdDeviation="2.88674"/>
<feColorMatrix type="matrix" values="0 0 0 0 0.0690278 0 0 0 0 0.295833 0 0 0 0 0.11166 0 0 0 0.08 0"/>
<feBlend mode="normal" in2="effect1_backgroundBlur_95_30289" result="effect2_dropShadow_95_30289"/>
<feBlend mode="normal" in="SourceGraphic" in2="effect2_dropShadow_95_30289" result="shape"/>
<feColorMatrix in="SourceAlpha" type="matrix" values="0 0 0 0 0 0 0 0 0 0 0 0 0 0 0 0 0 0 127 0" result="hardAlpha"/>
<feOffset/>
<feGaussianBlur stdDeviation="1.44337"/>
<feComposite in2="hardAlpha" operator="arithmetic" k2="-1" k3="1"/>
<feColorMatrix type="matrix" values="0 0 0 0 0.156863 0 0 0 0 0.67451 0 0 0 0 0.25098 0 0 0 0.2 0"/>
<feBlend mode="normal" in2="shape" result="effect3_innerShadow_95_30289"/>
<feColorMatrix in="SourceAlpha" type="matrix" values="0 0 0 0 0 0 0 0 0 0 0 0 0 0 0 0 0 0 127 0" result="hardAlpha"/>
<feOffset dx="-0.866022" dy="1.73204"/>
<feGaussianBlur stdDeviation="2.16506"/>
<feComposite in2="hardAlpha" operator="arithmetic" k2="-1" k3="1"/>
<feColorMatrix type="matrix" values="0 0 0 0 0.0770313 0 0 0 0 0.6375 0 0 0 0 0.178935 0 0 0 0.09 0"/>
<feBlend mode="normal" in2="effect3_innerShadow_95_30289" result="effect4_innerShadow_95_30289"/>
</filter>
<filter id="filter11_i_95_30289" x="25.3799" y="13.5814" width="38.6738" height="36.9477" filterUnits="userSpaceOnUse" color-interpolation-filters="sRGB">
<feFlood flood-opacity="0" result="BackgroundImageFix"/>
<feBlend mode="normal" in="SourceGraphic" in2="BackgroundImageFix" result="shape"/>
<feColorMatrix in="SourceAlpha" type="matrix" values="0 0 0 0 0 0 0 0 0 0 0 0 0 0 0 0 0 0 127 0" result="hardAlpha"/>
<feOffset dx="2.59807" dy="-0.866022"/>
<feGaussianBlur stdDeviation="2.88674"/>
<feComposite in2="hardAlpha" operator="arithmetic" k2="-1" k3="1"/>
<feColorMatrix type="matrix" values="0 0 0 0 0 0 0 0 0 0 0 0 0 0 0 0 0 0 0.17 0"/>
<feBlend mode="normal" in2="shape" result="effect1_innerShadow_95_30289"/>
</filter>
<filter id="filter12_biii_95_30289" x="30.4326" y="34.0394" width="24.7306" height="32.0946" filterUnits="userSpaceOnUse" color-interpolation-filters="sRGB">
<feFlood flood-opacity="0" result="BackgroundImageFix"/>
<feGaussianBlur in="BackgroundImage" stdDeviation="2.88674"/>
<feComposite in2="SourceAlpha" operator="in" result="effect1_backgroundBlur_95_30289"/>
<feBlend mode="normal" in="SourceGraphic" in2="effect1_backgroundBlur_95_30289" result="shape"/>
<feColorMatrix in="SourceAlpha" type="matrix" values="0 0 0 0 0 0 0 0 0 0 0 0 0 0 0 0 0 0 127 0" result="hardAlpha"/>
<feOffset dx="-2.88674" dy="2.88674"/>
<feGaussianBlur stdDeviation="1.44337"/>
<feComposite in2="hardAlpha" operator="arithmetic" k2="-1" k3="1"/>
<feColorMatrix type="matrix" values="0 0 0 0 1 0 0 0 0 1 0 0 0 0 1 0 0 0 0.15 0"/>
<feBlend mode="normal" in2="shape" result="effect2_innerShadow_95_30289"/>
<feColorMatrix in="SourceAlpha" type="matrix" values="0 0 0 0 0 0 0 0 0 0 0 0 0 0 0 0 0 0 127 0" result="hardAlpha"/>
<feOffset dy="-2.88674"/>
<feGaussianBlur stdDeviation="1.44337"/>
<feComposite in2="hardAlpha" operator="arithmetic" k2="-1" k3="1"/>
<feColorMatrix type="matrix" values="0 0 0 0 0.156863 0 0 0 0 0.67451 0 0 0 0 0.25098 0 0 0 0.05 0"/>
<feBlend mode="normal" in2="effect2_innerShadow_95_30289" result="effect3_innerShadow_95_30289"/>
<feColorMatrix in="SourceAlpha" type="matrix" values="0 0 0 0 0 0 0 0 0 0 0 0 0 0 0 0 0 0 127 0" result="hardAlpha"/>
<feOffset dx="-0.866022" dy="1.73204"/>
<feGaussianBlur stdDeviation="2.16506"/>
<feComposite in2="hardAlpha" operator="arithmetic" k2="-1" k3="1"/>
<feColorMatrix type="matrix" values="0 0 0 0 0.0770313 0 0 0 0 0.6375 0 0 0 0 0.178935 0 0 0 0.2 0"/>
<feBlend mode="normal" in2="effect3_innerShadow_95_30289" result="effect4_innerShadow_95_30289"/>
</filter>
<filter id="filter13_biii_95_30289" x="10.0687" y="21.6194" width="32.3465" height="24.3295" filterUnits="userSpaceOnUse" color-interpolation-filters="sRGB">
<feFlood flood-opacity="0" result="BackgroundImageFix"/>
<feGaussianBlur in="BackgroundImage" stdDeviation="2.88674"/>
<feComposite in2="SourceAlpha" operator="in" result="effect1_backgroundBlur_95_30289"/>
<feBlend mode="normal" in="SourceGraphic" in2="effect1_backgroundBlur_95_30289" result="shape"/>
<feColorMatrix in="SourceAlpha" type="matrix" values="0 0 0 0 0 0 0 0 0 0 0 0 0 0 0 0 0 0 127 0" result="hardAlpha"/>
<feOffset dx="-2.88674" dy="2.88674"/>
<feGaussianBlur stdDeviation="1.44337"/>
<feComposite in2="hardAlpha" operator="arithmetic" k2="-1" k3="1"/>
<feColorMatrix type="matrix" values="0 0 0 0 1 0 0 0 0 1 0 0 0 0 1 0 0 0 0.15 0"/>
<feBlend mode="normal" in2="shape" result="effect2_innerShadow_95_30289"/>
<feColorMatrix in="SourceAlpha" type="matrix" values="0 0 0 0 0 0 0 0 0 0 0 0 0 0 0 0 0 0 127 0" result="hardAlpha"/>
<feOffset dy="-2.88674"/>
<feGaussianBlur stdDeviation="1.44337"/>
<feComposite in2="hardAlpha" operator="arithmetic" k2="-1" k3="1"/>
<feColorMatrix type="matrix" values="0 0 0 0 0.156863 0 0 0 0 0.67451 0 0 0 0 0.25098 0 0 0 0.05 0"/>
<feBlend mode="normal" in2="effect2_innerShadow_95_30289" result="effect3_innerShadow_95_30289"/>
<feColorMatrix in="SourceAlpha" type="matrix" values="0 0 0 0 0 0 0 0 0 0 0 0 0 0 0 0 0 0 127 0" result="hardAlpha"/>
<feOffset dx="-0.866022" dy="1.73204"/>
<feGaussianBlur stdDeviation="2.16506"/>
<feComposite in2="hardAlpha" operator="arithmetic" k2="-1" k3="1"/>
<feColorMatrix type="matrix" values="0 0 0 0 0.0770313 0 0 0 0 0.6375 0 0 0 0 0.178935 0 0 0 0.2 0"/>
<feBlend mode="normal" in2="effect3_innerShadow_95_30289" result="effect4_innerShadow_95_30289"/>
</filter>
<filter id="filter14_bdiii_95_30289" x="17.2937" y="41.8841" width="19.2338" height="18.0785" filterUnits="userSpaceOnUse" color-interpolation-filters="sRGB">
<feFlood flood-opacity="0" result="BackgroundImageFix"/>
<feGaussianBlur in="BackgroundImage" stdDeviation="2.88674"/>
<feComposite in2="SourceAlpha" operator="in" result="effect1_backgroundBlur_95_30289"/>
<feColorMatrix in="SourceAlpha" type="matrix" values="0 0 0 0 0 0 0 0 0 0 0 0 0 0 0 0 0 0 127 0" result="hardAlpha"/>
<feOffset dx="2.59807" dy="1.44337"/>
<feGaussianBlur stdDeviation="2.88674"/>
<feColorMatrix type="matrix" values="0 0 0 0 0.0690278 0 0 0 0 0.295833 0 0 0 0 0.11166 0 0 0 0.08 0"/>
<feBlend mode="normal" in2="effect1_backgroundBlur_95_30289" result="effect2_dropShadow_95_30289"/>
<feBlend mode="normal" in="SourceGraphic" in2="effect2_dropShadow_95_30289" result="shape"/>
<feColorMatrix in="SourceAlpha" type="matrix" values="0 0 0 0 0 0 0 0 0 0 0 0 0 0 0 0 0 0 127 0" result="hardAlpha"/>
<feOffset dx="-2.88674" dy="2.88674"/>
<feGaussianBlur stdDeviation="1.44337"/>
<feComposite in2="hardAlpha" operator="arithmetic" k2="-1" k3="1"/>
<feColorMatrix type="matrix" values="0 0 0 0 1 0 0 0 0 1 0 0 0 0 1 0 0 0 0.15 0"/>
<feBlend mode="normal" in2="shape" result="effect3_innerShadow_95_30289"/>
<feColorMatrix in="SourceAlpha" type="matrix" values="0 0 0 0 0 0 0 0 0 0 0 0 0 0 0 0 0 0 127 0" result="hardAlpha"/>
<feOffset dy="-2.88674"/>
<feGaussianBlur stdDeviation="1.44337"/>
<feComposite in2="hardAlpha" operator="arithmetic" k2="-1" k3="1"/>
<feColorMatrix type="matrix" values="0 0 0 0 0.156863 0 0 0 0 0.67451 0 0 0 0 0.25098 0 0 0 0.3 0"/>
<feBlend mode="normal" in2="effect3_innerShadow_95_30289" result="effect4_innerShadow_95_30289"/>
<feColorMatrix in="SourceAlpha" type="matrix" values="0 0 0 0 0 0 0 0 0 0 0 0 0 0 0 0 0 0 127 0" result="hardAlpha"/>
<feOffset dx="-0.866022" dy="1.73204"/>
<feGaussianBlur stdDeviation="2.16506"/>
<feComposite in2="hardAlpha" operator="arithmetic" k2="-1" k3="1"/>
<feColorMatrix type="matrix" values="0 0 0 0 0.0770313 0 0 0 0 0.6375 0 0 0 0 0.178935 0 0 0 0.09 0"/>
<feBlend mode="normal" in2="effect4_innerShadow_95_30289" result="effect5_innerShadow_95_30289"/>
</filter>
<filter id="filter15_bdii_95_30289" x="11.948" y="35.2133" width="31.1568" height="29.0595" filterUnits="userSpaceOnUse" color-interpolation-filters="sRGB">
<feFlood flood-opacity="0" result="BackgroundImageFix"/>
<feGaussianBlur in="BackgroundImage" stdDeviation="2.88674"/>
<feComposite in2="SourceAlpha" operator="in" result="effect1_backgroundBlur_95_30289"/>
<feColorMatrix in="SourceAlpha" type="matrix" values="0 0 0 0 0 0 0 0 0 0 0 0 0 0 0 0 0 0 127 0" result="hardAlpha"/>
<feOffset dx="2.59807" dy="1.44337"/>
<feGaussianBlur stdDeviation="2.88674"/>
<feColorMatrix type="matrix" values="0 0 0 0 0.0690278 0 0 0 0 0.295833 0 0 0 0 0.11166 0 0 0 0.08 0"/>
<feBlend mode="normal" in2="effect1_backgroundBlur_95_30289" result="effect2_dropShadow_95_30289"/>
<feBlend mode="normal" in="SourceGraphic" in2="effect2_dropShadow_95_30289" result="shape"/>
<feColorMatrix in="SourceAlpha" type="matrix" values="0 0 0 0 0 0 0 0 0 0 0 0 0 0 0 0 0 0 127 0" result="hardAlpha"/>
<feOffset/>
<feGaussianBlur stdDeviation="1.44337"/>
<feComposite in2="hardAlpha" operator="arithmetic" k2="-1" k3="1"/>
<feColorMatrix type="matrix" values="0 0 0 0 0.156863 0 0 0 0 0.67451 0 0 0 0 0.25098 0 0 0 0.2 0"/>
<feBlend mode="normal" in2="shape" result="effect3_innerShadow_95_30289"/>
<feColorMatrix in="SourceAlpha" type="matrix" values="0 0 0 0 0 0 0 0 0 0 0 0 0 0 0 0 0 0 127 0" result="hardAlpha"/>
<feOffset dx="-0.866022" dy="1.73204"/>
<feGaussianBlur stdDeviation="2.16506"/>
<feComposite in2="hardAlpha" operator="arithmetic" k2="-1" k3="1"/>
<feColorMatrix type="matrix" values="0 0 0 0 0.0770313 0 0 0 0 0.6375 0 0 0 0 0.178935 0 0 0 0.09 0"/>
<feBlend mode="normal" in2="effect3_innerShadow_95_30289" result="effect4_innerShadow_95_30289"/>
</filter>
<filter id="filter16_bdii_95_30289" x="36.4685" y="16.1765" width="25.1244" height="23.9696" filterUnits="userSpaceOnUse" color-interpolation-filters="sRGB">
<feFlood flood-opacity="0" result="BackgroundImageFix"/>
<feGaussianBlur in="BackgroundImage" stdDeviation="2.88674"/>
<feComposite in2="SourceAlpha" operator="in" result="effect1_backgroundBlur_95_30289"/>
<feColorMatrix in="SourceAlpha" type="matrix" values="0 0 0 0 0 0 0 0 0 0 0 0 0 0 0 0 0 0 127 0" result="hardAlpha"/>
<feOffset dx="2.59807" dy="1.44337"/>
<feGaussianBlur stdDeviation="2.88674"/>
<feColorMatrix type="matrix" values="0 0 0 0 0.0690278 0 0 0 0 0.295833 0 0 0 0 0.11166 0 0 0 0.08 0"/>
<feBlend mode="normal" in2="effect1_backgroundBlur_95_30289" result="effect2_dropShadow_95_30289"/>
<feBlend mode="normal" in="SourceGraphic" in2="effect2_dropShadow_95_30289" result="shape"/>
<feColorMatrix in="SourceAlpha" type="matrix" values="0 0 0 0 0 0 0 0 0 0 0 0 0 0 0 0 0 0 127 0" result="hardAlpha"/>
<feOffset dx="-2.88674" dy="2.88674"/>
<feGaussianBlur stdDeviation="1.44337"/>
<feComposite in2="hardAlpha" operator="arithmetic" k2="-1" k3="1"/>
<feColorMatrix type="matrix" values="0 0 0 0 1 0 0 0 0 1 0 0 0 0 1 0 0 0 0.15 0"/>
<feBlend mode="normal" in2="shape" result="effect3_innerShadow_95_30289"/>
<feColorMatrix in="SourceAlpha" type="matrix" values="0 0 0 0 0 0 0 0 0 0 0 0 0 0 0 0 0 0 127 0" result="hardAlpha"/>
<feOffset dx="0.866022" dy="-1.73204"/>
<feGaussianBlur stdDeviation="1.29903"/>
<feComposite in2="hardAlpha" operator="arithmetic" k2="-1" k3="1"/>
<feColorMatrix type="matrix" values="0 0 0 0 0.0199306 0 0 0 0 0.341667 0 0 0 0 0.0521041 0 0 0 0.05 0"/>
<feBlend mode="normal" in2="effect3_innerShadow_95_30289" result="effect4_innerShadow_95_30289"/>
</filter>
<linearGradient id="paint0_linear_95_30289" x1="57.3445" y1="29.7574" x2="45.6649" y2="82.2643" gradientUnits="userSpaceOnUse">
<stop stop-color="#9BE15D"/>
<stop offset="1" stop-color="#00E3AE"/>
</linearGradient>
<linearGradient id="paint1_linear_95_30289" x1="70.0805" y1="11.8252" x2="68.7661" y2="17.7342" gradientUnits="userSpaceOnUse">
<stop stop-color="#9BE15D"/>
<stop offset="1" stop-color="#00E3AE"/>
</linearGradient>
<linearGradient id="paint2_linear_95_30289" x1="79.1757" y1="52.2797" x2="77.3201" y2="60.6218" gradientUnits="userSpaceOnUse">
<stop stop-color="#9BE15D"/>
<stop offset="1" stop-color="#00E3AE"/>
</linearGradient>
<linearGradient id="paint3_linear_95_30289" x1="11.5426" y1="-1.2759e-07" x2="10.1509" y2="6.25663" gradientUnits="userSpaceOnUse">
<stop stop-color="#9BE15D"/>
<stop offset="1" stop-color="#00E3AE"/>
</linearGradient>
<linearGradient id="paint4_linear_95_30289" x1="11.8174" y1="27.6958" x2="11.0443" y2="31.1717" gradientUnits="userSpaceOnUse">
<stop stop-color="#9BE15D"/>
<stop offset="1" stop-color="#00E3AE"/>
</linearGradient>
<linearGradient id="paint5_linear_95_30289" x1="5.07636" y1="49.7902" x2="3.83927" y2="55.3516" gradientUnits="userSpaceOnUse">
<stop stop-color="#9BE15D"/>
<stop offset="1" stop-color="#00E3AE"/>
</linearGradient>
<linearGradient id="paint6_linear_95_30289" x1="57.4732" y1="14.4474" x2="48.5071" y2="54.7491" gradientUnits="userSpaceOnUse">
<stop stop-color="#9BE15D"/>
<stop offset="1" stop-color="#00E3AE"/>
</linearGradient>
<linearGradient id="paint7_linear_95_30289" x1="27.5942" y1="47.6576" x2="26.3301" y2="53.341" gradientUnits="userSpaceOnUse">
<stop stop-color="#9BE15D"/>
<stop offset="1" stop-color="#00E3AE"/>
</linearGradient>
<linearGradient id="paint8_linear_95_30289" x1="21.6372" y1="46.5143" x2="20.5456" y2="51.4266" gradientUnits="userSpaceOnUse">
<stop stop-color="#9BE15D"/>
<stop offset="1" stop-color="#00E3AE"/>
</linearGradient>
<linearGradient id="paint9_linear_95_30289" x1="57.4732" y1="14.4474" x2="48.5071" y2="54.7491" gradientUnits="userSpaceOnUse">
<stop stop-color="#9BE15D"/>
<stop offset="1" stop-color="#00E3AE"/>
</linearGradient>
<linearGradient id="paint10_linear_95_30289" x1="47.3538" y1="38.9267" x2="44.0016" y2="61.114" gradientUnits="userSpaceOnUse">
<stop stop-color="#9BE15D"/>
<stop offset="1" stop-color="#00E3AE"/>
</linearGradient>
<linearGradient id="paint11_linear_95_30289" x1="37.5105" y1="29.507" x2="15.252" y2="32.3478" gradientUnits="userSpaceOnUse">
<stop stop-color="#9BE15D"/>
<stop offset="1" stop-color="#00E3AE"/>
</linearGradient>
<linearGradient id="paint12_linear_95_30289" x1="27.5942" y1="47.6576" x2="26.3301" y2="53.3411" gradientUnits="userSpaceOnUse">
<stop stop-color="#9BE15D"/>
<stop offset="1" stop-color="#00E3AE"/>
</linearGradient>
<linearGradient id="paint13_linear_95_30289" x1="21.6372" y1="46.5143" x2="20.5456" y2="51.4267" gradientUnits="userSpaceOnUse">
<stop stop-color="#9BE15D"/>
<stop offset="1" stop-color="#00E3AE"/>
</linearGradient>
<linearGradient id="paint14_linear_95_30289" x1="52.0093" y1="21.95" x2="49.2813" y2="34.2136" gradientUnits="userSpaceOnUse">
<stop stop-color="#9BE15D"/>
<stop offset="1" stop-color="#00E3AE"/>
</linearGradient>
</defs>
</svg>
